<mxfile host="app.diagrams.net" agent="Mozilla/5.0 (Windows NT 10.0; Win64; x64; rv:130.0) Gecko/20100101 Firefox/130.0" version="24.7.14">
  <diagram name="Page-1" id="3wzPbbbDXQXpbezkljH7">
    <mxGraphModel dx="2390" dy="1320" grid="1" gridSize="10" guides="1" tooltips="1" connect="1" arrows="1" fold="1" page="1" pageScale="1" pageWidth="1600" pageHeight="900" math="0" shadow="0">
      <root>
        <mxCell id="0" />
        <mxCell id="1" parent="0" />
        <mxCell id="NkaX51bKTRrk2GSWaSnA-14" style="edgeStyle=none;rounded=0;orthogonalLoop=1;jettySize=auto;html=1;entryX=0.5;entryY=1;entryDx=0;entryDy=0;fillColor=#b1ddf0;strokeColor=#10739e;strokeWidth=6;exitX=0.737;exitY=-0.007;exitDx=0;exitDy=0;exitPerimeter=0;" edge="1" parent="1" source="NkaX51bKTRrk2GSWaSnA-1" target="NkaX51bKTRrk2GSWaSnA-7">
          <mxGeometry relative="1" as="geometry">
            <mxPoint x="320" y="440" as="sourcePoint" />
            <Array as="points" />
          </mxGeometry>
        </mxCell>
        <mxCell id="NkaX51bKTRrk2GSWaSnA-36" style="edgeStyle=elbowEdgeStyle;rounded=0;orthogonalLoop=1;jettySize=auto;elbow=vertical;html=1;exitX=0.98;exitY=0.02;exitDx=0;exitDy=0;exitPerimeter=0;strokeWidth=6;fillColor=#b1ddf0;strokeColor=#10739e;" edge="1" parent="1" source="NkaX51bKTRrk2GSWaSnA-1">
          <mxGeometry relative="1" as="geometry">
            <mxPoint x="710" y="280" as="targetPoint" />
            <Array as="points">
              <mxPoint x="550" y="280" />
            </Array>
          </mxGeometry>
        </mxCell>
        <mxCell id="NkaX51bKTRrk2GSWaSnA-1" value="" style="verticalLabelPosition=bottom;html=1;verticalAlign=top;align=center;strokeColor=none;fillColor=#00BEF2;shape=mxgraph.azure.computer;pointerEvents=1;" vertex="1" parent="1">
          <mxGeometry x="94" y="480" width="310" height="280" as="geometry" />
        </mxCell>
        <mxCell id="NkaX51bKTRrk2GSWaSnA-2" value="" style="verticalLabelPosition=bottom;html=1;verticalAlign=top;align=center;strokeColor=#001DBC;fillColor=#0050ef;shape=mxgraph.azure.computer;pointerEvents=1;fontColor=#ffffff;" vertex="1" parent="1">
          <mxGeometry x="1170" y="480" width="280" height="280" as="geometry" />
        </mxCell>
        <mxCell id="NkaX51bKTRrk2GSWaSnA-7" value="" style="image;html=1;image=img/lib/clip_art/computers/Printer_128x128.png" vertex="1" parent="1">
          <mxGeometry x="234" y="150" width="170" height="130" as="geometry" />
        </mxCell>
        <mxCell id="NkaX51bKTRrk2GSWaSnA-15" style="edgeStyle=none;rounded=0;orthogonalLoop=1;jettySize=auto;html=1;exitX=0.418;exitY=-0.007;exitDx=0;exitDy=0;exitPerimeter=0;entryX=0.5;entryY=1;entryDx=0;entryDy=0;entryPerimeter=0;fillColor=#008a00;strokeColor=#005700;strokeWidth=4;" edge="1" parent="1" source="NkaX51bKTRrk2GSWaSnA-6">
          <mxGeometry relative="1" as="geometry">
            <mxPoint x="763" y="440" as="sourcePoint" />
            <mxPoint x="763" y="190" as="targetPoint" />
          </mxGeometry>
        </mxCell>
        <mxCell id="NkaX51bKTRrk2GSWaSnA-22" style="edgeStyle=elbowEdgeStyle;rounded=0;orthogonalLoop=1;jettySize=auto;elbow=vertical;html=1;exitX=0.053;exitY=0.004;exitDx=0;exitDy=0;fillColor=#a20025;strokeColor=#6F0000;strokeWidth=6;exitPerimeter=0;" edge="1" parent="1" source="NkaX51bKTRrk2GSWaSnA-17" target="NkaX51bKTRrk2GSWaSnA-10">
          <mxGeometry relative="1" as="geometry">
            <mxPoint x="1290" y="150" as="targetPoint" />
            <Array as="points">
              <mxPoint x="730" y="40" />
            </Array>
          </mxGeometry>
        </mxCell>
        <mxCell id="NkaX51bKTRrk2GSWaSnA-17" value="" style="rounded=0;whiteSpace=wrap;html=1;shadow=1;fillColor=#a20025;fontColor=#ffffff;strokeColor=#6F0000;" vertex="1" parent="1">
          <mxGeometry x="149" y="550" width="200" height="100" as="geometry" />
        </mxCell>
        <mxCell id="NkaX51bKTRrk2GSWaSnA-44" style="edgeStyle=elbowEdgeStyle;rounded=0;orthogonalLoop=1;jettySize=auto;elbow=vertical;html=1;entryX=0;entryY=0.5;entryDx=0;entryDy=0;strokeWidth=8;fillColor=#b1ddf0;strokeColor=#00BEF2;" edge="1" parent="1" target="NkaX51bKTRrk2GSWaSnA-42">
          <mxGeometry relative="1" as="geometry">
            <mxPoint x="410" y="600" as="sourcePoint" />
          </mxGeometry>
        </mxCell>
        <mxCell id="NkaX51bKTRrk2GSWaSnA-19" value="&lt;font color=&quot;#ffffff&quot; style=&quot;font-size: 30px;&quot;&gt;MotionPrinter&lt;/font&gt;" style="text;html=1;align=center;verticalAlign=middle;whiteSpace=wrap;rounded=0;" vertex="1" parent="1">
          <mxGeometry x="124" y="565" width="250" height="70" as="geometry" />
        </mxCell>
        <mxCell id="NkaX51bKTRrk2GSWaSnA-21" style="edgeStyle=elbowEdgeStyle;rounded=0;orthogonalLoop=1;jettySize=auto;elbow=vertical;html=1;exitX=0.139;exitY=-0.024;exitDx=0;exitDy=0;fillColor=#a20025;strokeColor=#6F0000;endSize=7;strokeWidth=6;exitPerimeter=0;" edge="1" parent="1" source="NkaX51bKTRrk2GSWaSnA-17">
          <mxGeometry relative="1" as="geometry">
            <mxPoint x="760" y="160" as="targetPoint" />
            <Array as="points">
              <mxPoint x="570" y="60" />
            </Array>
          </mxGeometry>
        </mxCell>
        <mxCell id="NkaX51bKTRrk2GSWaSnA-24" style="rounded=0;orthogonalLoop=1;jettySize=auto;html=1;strokeWidth=6;fillColor=#a20025;strokeColor=#6F0000;edgeStyle=elbowEdgeStyle;exitX=0.25;exitY=0;exitDx=0;exitDy=0;" edge="1" parent="1" source="NkaX51bKTRrk2GSWaSnA-17" target="NkaX51bKTRrk2GSWaSnA-7">
          <mxGeometry relative="1" as="geometry">
            <mxPoint x="201" y="569.9999999999998" as="sourcePoint" />
            <mxPoint x="220" y="230" as="targetPoint" />
            <Array as="points">
              <mxPoint x="200" y="400" />
            </Array>
          </mxGeometry>
        </mxCell>
        <mxCell id="NkaX51bKTRrk2GSWaSnA-39" style="edgeStyle=elbowEdgeStyle;rounded=0;orthogonalLoop=1;jettySize=auto;elbow=vertical;html=1;exitX=0.5;exitY=0;exitDx=0;exitDy=0;fillColor=#60a917;strokeColor=#2D7600;strokeWidth=6;" edge="1" parent="1">
          <mxGeometry relative="1" as="geometry">
            <mxPoint x="1300" y="549.9999999999998" as="sourcePoint" />
            <mxPoint x="1301" y="280" as="targetPoint" />
          </mxGeometry>
        </mxCell>
        <mxCell id="NkaX51bKTRrk2GSWaSnA-40" style="edgeStyle=elbowEdgeStyle;rounded=0;orthogonalLoop=1;jettySize=auto;elbow=vertical;html=1;exitX=0.25;exitY=0;exitDx=0;exitDy=0;fillColor=#60a917;strokeColor=#2D7600;strokeWidth=6;" edge="1" parent="1">
          <mxGeometry relative="1" as="geometry">
            <mxPoint x="780" y="300" as="targetPoint" />
            <mxPoint x="1280" y="549.9999999999998" as="sourcePoint" />
            <Array as="points">
              <mxPoint x="1040" y="400" />
            </Array>
          </mxGeometry>
        </mxCell>
        <mxCell id="NkaX51bKTRrk2GSWaSnA-41" style="edgeStyle=elbowEdgeStyle;rounded=0;orthogonalLoop=1;jettySize=auto;elbow=vertical;html=1;exitX=0.25;exitY=0;exitDx=0;exitDy=0;entryX=0.25;entryY=1;entryDx=0;entryDy=0;fillColor=#60a917;strokeColor=#2D7600;strokeWidth=7;" edge="1" parent="1" source="NkaX51bKTRrk2GSWaSnA-31" target="NkaX51bKTRrk2GSWaSnA-7">
          <mxGeometry relative="1" as="geometry">
            <Array as="points">
              <mxPoint x="770" y="420" />
            </Array>
          </mxGeometry>
        </mxCell>
        <mxCell id="NkaX51bKTRrk2GSWaSnA-31" value="" style="rounded=0;whiteSpace=wrap;html=1;shadow=1;fillColor=#60a917;strokeColor=#2D7600;fontColor=#ffffff;" vertex="1" parent="1">
          <mxGeometry x="1210" y="550" width="200" height="100" as="geometry" />
        </mxCell>
        <mxCell id="NkaX51bKTRrk2GSWaSnA-43" style="edgeStyle=elbowEdgeStyle;rounded=0;orthogonalLoop=1;jettySize=auto;elbow=vertical;html=1;entryX=1;entryY=0.5;entryDx=0;entryDy=0;fillColor=#0050ef;strokeColor=#001DBC;strokeWidth=8;" edge="1" parent="1" source="NkaX51bKTRrk2GSWaSnA-32" target="NkaX51bKTRrk2GSWaSnA-42">
          <mxGeometry relative="1" as="geometry" />
        </mxCell>
        <mxCell id="NkaX51bKTRrk2GSWaSnA-32" value="&lt;font color=&quot;#ffffff&quot; style=&quot;font-size: 30px;&quot;&gt;MotionPrinter&lt;/font&gt;" style="text;html=1;align=center;verticalAlign=middle;whiteSpace=wrap;rounded=0;" vertex="1" parent="1">
          <mxGeometry x="1185" y="565" width="250" height="70" as="geometry" />
        </mxCell>
        <mxCell id="NkaX51bKTRrk2GSWaSnA-6" value="" style="fontColor=#0066CC;verticalAlign=top;verticalLabelPosition=bottom;labelPosition=center;align=center;html=1;outlineConnect=0;fillColor=#CCCCCC;strokeColor=#6881B3;gradientColor=none;gradientDirection=north;strokeWidth=2;shape=mxgraph.networks.printer;" vertex="1" parent="1">
          <mxGeometry x="720" y="180" width="100" height="100" as="geometry" />
        </mxCell>
        <mxCell id="NkaX51bKTRrk2GSWaSnA-10" value="" style="sketch=0;pointerEvents=1;shadow=0;dashed=0;html=1;strokeColor=none;fillColor=#505050;labelPosition=center;verticalLabelPosition=bottom;verticalAlign=top;outlineConnect=0;align=center;shape=mxgraph.office.devices.printer;" vertex="1" parent="1">
          <mxGeometry x="1231" y="160" width="160" height="120" as="geometry" />
        </mxCell>
        <mxCell id="NkaX51bKTRrk2GSWaSnA-38" style="edgeStyle=elbowEdgeStyle;rounded=0;orthogonalLoop=1;jettySize=auto;elbow=vertical;html=1;exitX=0.98;exitY=0.02;exitDx=0;exitDy=0;exitPerimeter=0;fillColor=#0050ef;strokeColor=#001DBC;strokeWidth=6;" edge="1" parent="1" source="NkaX51bKTRrk2GSWaSnA-2">
          <mxGeometry relative="1" as="geometry">
            <mxPoint x="1400" y="280" as="targetPoint" />
          </mxGeometry>
        </mxCell>
        <mxCell id="NkaX51bKTRrk2GSWaSnA-42" value="" style="image;html=1;image=img/lib/clip_art/networking/Wireless_Router_128x128.png" vertex="1" parent="1">
          <mxGeometry x="690" y="510" width="190" height="180" as="geometry" />
        </mxCell>
        <mxCell id="NkaX51bKTRrk2GSWaSnA-45" value="&lt;font style=&quot;font-size: 36px;&quot;&gt;This is how motionprinter works&lt;/font&gt;" style="text;strokeColor=none;align=center;fillColor=none;html=1;verticalAlign=middle;whiteSpace=wrap;rounded=0;" vertex="1" parent="1">
          <mxGeometry x="374" y="830" width="760" height="40" as="geometry" />
        </mxCell>
      </root>
    </mxGraphModel>
  </diagram>
</mxfile>
